<svg height="512" viewBox="0 0 42 60" width="512" xmlns="http://www.w3.org/2000/svg"><g id="032---Strong-Woman" fill="none"><g id="Layer_3"><path id="Shape" d="m41 20v32c0 1.6568542-1.3431458 3-3 3h-22c-2.5675566-.001445-4.8496364-1.6364439-5.6767639-4.0671247-.82712754-2.4306808-.0159649-5.1182679 2.0177993-6.6854796s4.8393333-1.6666656 6.9789646-.2473957c.4463554.3009774.8529064.6571294 1.21 1.06.1395206.1580795.297288.2990631.47.42v.52c0 1.1045695.8954305 2 2 2s2-.8954305 2-2c0 1.1045695.8954305 2 2 2s2-.8954305 2-2c0 1.1045695.8954305 2 2 2s2-.8954305 2-2h.02c.23-6.43 3.02-12.8 3.78-16.15-1.25-.35-2.02-1.3-2.8-2.85-.5390442-.9248197-1.4497139-1.5732166-2.5-1.78-.9046418-.2361549-1.526591-1.0654205-1.5-2 .031065-.6838468.5954502-1.2217765 1.28-1.22h2.72c-1.1032019-.0032948-1.9967052-.8967981-2-2 .0081672-1.1011688.8988312-1.9918328 2-2h5c1.1032019.0032948 1.9967052.8967981 2 2z" fill="#ffe0b2"/><path id="Shape" d="m39 18h-3c1.1032019.0032948 1.9967052.8967981 2 2v32c0 1.6568542-1.3431458 3-3 3h3c1.6568542 0 3-1.3431458 3-3v-32c-.0032948-1.1032019-.8967981-1.9967052-2-2z" fill="#dfc49c"/><path id="Shape" d="m33.02 46c-.01.35-.02 1.69-.02 2" fill="#ffe0b2"/><path id="Shape" d="m23 55v2c-.0032948 1.1032019-.8967981 1.9967052-2 2h-15.34c-.4012802-.000327-.7635008-.2404951-.92-.61l-1.38-3.23c-.89915974-2.0946204-1.36191334-4.3505441-1.36-6.63-.00797137-2.7899674 1.09475541-5.468397 3.06475203-7.4440222 1.96999663-1.9756252 4.64526919-3.0859892 7.43524797-3.0859778.33 0 .66.02 1 .05 1.2147286.1144662 2.399642.4428565 3.5.97 1.2423188.5818621 2.3544997 1.4083451 3.27 2.43.26.29.5.59.73.9h.01c-.0083021.0495443-.011652.0997921-.01.15v2.98c-.172712-.1209369-.3304794-.2619205-.47-.42-.3570936-.4028706-.7636446-.7590226-1.21-1.06-1.2114961-.808576-2.6767645-1.1464412-4.12-.95-3.14237.4079735-5.42576369 3.1891736-5.21410405 6.3508396.21165965 3.161666 2.84539445 5.613686 6.01410405 5.5991604z" fill="#ef314c"/><path id="Shape" d="m25 22.5c.1271713 1.7913447-1.2102802 3.3517048-3 3.5-.4371821.002034-.8675732-.1081461-1.25-.32-.5165413 1.5416019-1.1621621 3.0368998-1.93 4.47-.4691262.8778598-1.0846285 1.6692199-1.82 2.34-2.2866478 2.0133392-5.7133522 2.0133392-8 0-.73537153-.6707801-1.35087377-1.4621402-1.82-2.34-.76783794-1.4331002-1.4134587-2.9283981-1.93-4.47-.38242681.2118539-.81281789.322034-1.25.32-1.78971983-.1482952-3.1271713-1.7086553-3-3.5-.01504995-.963306.34331454-1.8950537 1-2.6.51272907-.5647603 1.23726764-.8908026 2-.9.36571224.0000121.72717041.0784417 1.06.23.04749763-.1603492.14145416-.303024.27-.41.8-.64 4.98-1.93 7.18-3.64.2896171-.2200258.6903829-.2200258.98 0 2.2 1.71 6.38 3 7.18 3.64.1285458.106976.2225024.2496508.27.41.3328296-.1515583.6942878-.2299879 1.06-.23.7627324.0091974 1.4872709.3352397 2 .9.6566855.7049463 1.01505 1.636694 1 2.6z" fill="#ffe0b2"/><path id="Shape" d="m24 19.9c-.5127291-.5647603-1.2372676-.8908026-2-.9-.3657122.0000121-.7271704.0784417-1.06.23-.0474976-.1603492-.1414542-.303024-.27-.41-.8-.64-4.98-1.93-7.18-3.64-.2896171-.2200258-.6903829-.2200258-.98 0-.322889.2467934-.6601494.4741937-1.01.681 2.28 1.371 5.48 2.407 6.17 2.959.1285458.106976.2225024.2496508.27.41.3328296-.1515583.6942878-.2299879 1.06-.23.7627324.0091974 1.4872709.3352397 2 .9.6566855.7049463 1.01505 1.636694 1 2.6.1271713 1.7913447-1.2102802 3.3517048-3 3.5-.4371821.002034-.8675732-.1081461-1.25-.32-.5165413 1.5416019-1.1621621 3.0368998-1.93 4.47-.4691262.8778598-1.0846285 1.6692199-1.82 2.34-.7172901.6271566-1.5746397 1.0729784-2.5 1.3.4892649.1323828.9931909.2029324 1.5.21 1.4748827.0125303 2.9013256-.5259519 4-1.51.7353715-.6707801 1.3508738-1.4621402 1.82-2.34.7678379-1.4331002 1.4134587-2.9283981 1.93-4.47.3824268.2118539.8128179.322034 1.25.32 1.7897198-.1482952 3.1271713-1.7086553 3-3.5.01505-.963306-.3433145-1.8950537-1-2.6z" fill="#dfc49c"/><path id="Shape" d="m24 18 .000015 1.9c-.5127441-.5647603-1.2372826-.8908026-2.000015-.9-.3657122.0000121-.7271704.0784417-1.06.23-.0474976-.1603492-.1414542-.303024-.27-.41-.8-.64-4.98-1.93-7.18-3.64-.2896171-.2200258-.6903829-.2200258-.98 0-2.2 1.71-6.38 3-7.18 3.64-.12854584.106976-.22250237.2496508-.27.41-.33282959-.1515583-.69428776-.2299879-1.06-.23-.76273236.0091974-1.48727093.3352397-2.00000031.9l.00000031-1.9c-.00062556-2.6362234.94707023-5.1847087 2.67-7.18.73642575-.8631399 1.60362163-1.60548657 2.57-2.2.55057771.25755032 1.15220685.38744752 1.76.38.52638057.00442036 1.0488638-.09057659 1.54-.28.5611237.80389722 1.4796375 1.2829094 2.46 1.2829094s1.8988763-.47901218 2.46-1.2829094c.4911362.18942341 1.0136194.28442036 1.54.28.6044711.00638802 1.2026144-.12349451 1.75-.38.7380468.45047768 1.4195553.98762717 2.03 1.6 2.0659504 2.0614595 3.2248289 4.8614827 3.22 7.78z" fill="#ffdc00"/><path id="Shape" d="m10.87 4.89c-.1205698.12067439-.2309465.25111953-.33.39-.4911362-.18942341-1.01361943-.28442036-1.54-.28-1.66 0-3 .9-3 2 .07129382.73200119.55201205 1.36003629 1.24 1.62-.96637837.59451343-1.83357425 1.3368601-2.57 2.2-2.35918134-.6480734-3.90290306-2.90814492-3.64843077-5.34145123.2544723-2.43330631 2.23239002-4.3250889 4.67460924-4.47103754 2.44221923-.14594865 4.63136333 1.49680755 5.17382153 3.88248877z" fill="#ffdc00"/><path id="Shape" d="m17 32.49v6.53c-1.100358-.5271435-2.2852714-.8555338-3.5-.97-.34-.03-.67-.05-1-.05-1.1923332-.0009053-2.3760476.2020172-3.5.6v-6.11c2.2866478 2.0133392 5.7133522 2.0133392 8 0z" fill="#dfc49c"/><path id="Shape" d="m16 7c-.0012542 1.29234682-.8299876 2.43864829-2.0568012 2.8449612-1.2268136.4063129-2.5759533-.0186908-3.3483775-1.05480024-.77242416-1.03610943-.79451295-2.45043546-.0548213-3.51016096.0990535-.13888047.2094302-.26932561.33-.39.8557116-.86275837 2.1473566-1.12410635 3.2711624-.66187822 1.1238058.46222812 1.8577829 1.55672669 1.8588376 2.77187822z" fill="#ef314c"/><path id="Shape" d="m20 7c-.0654787.73740867-.5533095 1.36963743-1.25 1.62-.5473856.25650549-1.1455289.38638802-1.75.38-.5263806.00442036-1.0488638-.09057659-1.54-.28.7200756-1.03361967.7200756-2.40638033 0-3.44.4911362-.18942341 1.0136194-.28442036 1.54-.28 1.66 0 3 .9 3 2z" fill="#60a917"/><path id="Shape" d="m10 7c-.00059615.61513655.1879177 1.21558808.54 1.72-.4911362.18942341-1.01361943.28442036-1.54.28-.60779315.00744752-1.20942229-.12244968-1.76-.38-.68798795-.25996371-1.16870618-.88799881-1.24-1.62 0-1.1 1.34-2 3-2 .52638057-.00442036 1.0488638.09057659 1.54.28-.3520823.50441192-.54059615 1.10486345-.54 1.72z" fill="#60a917"/><g fill="#ffe0b2"><path id="Shape" d="m25 42.5v3.5c0 1.1045695-.8954305 2-2 2s-2-.8954305-2-2v-3.5c-.001652-.0502079.0016979-.1004557.01-.15.0729075-.7675628.718988-1.3529377 1.49-1.35h1c.8284271 0 1.5.6715729 1.5 1.5z"/><path id="Shape" d="m29 42.5v3.5c0 1.1045695-.8954305 2-2 2s-2-.8954305-2-2v-3.5c0-.8284271.6715729-1.5 1.5-1.5h1c.8284271 0 1.5.6715729 1.5 1.5z"/><path id="Shape" d="m33 42.5v3.5c0 1.1045695-.8954305 2-2 2s-2-.8954305-2-2v-3.5c0-.8284271.6715729-1.5 1.5-1.5h1c.8284271 0 1.5.6715729 1.5 1.5z"/></g></g><path id="Shape" d="m40 17h-5c-.9724358.0037858-1.8830512.477446-2.444435 1.2714824-.5613838.7940365-.7042717 1.8104801-.383565 2.7285176-1.1806199.0593581-2.1218481 1.0079532-2.172 2.189-.0452896 1.4009716.8855862 2.6465681 2.242 3 .7752877.1302423 1.4558094.5907347 1.865 1.262.5110054 1.2311119 1.3874462 2.2757902 2.511 2.993-.688 2.486-1.978 5.853-2.849 9.916-.7010745-.3512316-1.4936389-.4769801-2.269-.36-.542772.0016156-1.0699124.1818976-1.5.513-.4300876-.3311024-.957228-.5113844-1.5-.513-1.238 0-1.749-.056-2.5.513-.4300876-.3311024-.957228-.5113844-1.5-.513-1.125 0-1.817-.093-2.639.628-.8298362-.8860211-1.7956239-1.6340762-2.861-2.216v-5.512c1.5231658-1.7295741 2.6682836-3.7582242 3.362-5.956 3.719.655 6.089-4.234 3.638-7.39v-1.554c.0096708-3.6841696-1.6815406-7.1665964-4.583-9.437 1.807-2.241-.843-5.277-4.619-4.414-1.1693824-1.15901252-2.9335789-1.47427507-4.432-.792-.9931121-2.05883513-3.08017033-3.3645106-5.366-3.357-2.73629253-.00670893-5.12880624 1.84288944-5.81142047 4.49267805-.68261422 2.6497886.51846364 5.42513505 2.91742047 6.74132195-1.36617686 1.9923553-2.10009805 4.3502426-2.106 6.766v1.555c-2.436 3.137-.1 8.048 3.638 7.39.69634989 2.1963311 1.84118297 4.2241363 3.362 5.955v5.019c-4.24529946 1.8189498-6.99851739 5.9924349-7 10.611 0 4.223 1.268 6.621 2.822 10.257.3148597.7355993 1.03784822 1.2127402 1.838 1.213h15.34c1.6568542 0 3-1.3431458 3-3v-1h14c2.209139 0 4-1.790861 4-4v-32c0-1.6568542-1.3431458-3-3-3zm-8.5 25h1c.2761424 0 .5.2238576.5.5v3.5c0 .5522847-.4477153 1-1 1s-1-.4477153-1-1v-3.5c0-.2761424.2238576-.5.5-.5zm-4 0h1c.2761424 0 .5.2238576.5.5v3.5c0 .5522847-.4477153 1-1 1s-1-.4477153-1-1v-3.5c0-.2761424.2238576-.5.5-.5zm-4.5.5c0-.2761424.2238576-.5.5-.5h1c.2761424 0 .5.2238576.5.5v3.5c0 .5522847-.4477153 1-1 1s-1-.4477153-1-1zm-3-35.5c0 .237-.269.519-.684.719-.4566256.19912124-.953645.28818054-1.451.26.1814971-.64310647.1814971-1.32389353 0-1.967.047 0 .09-.012.138-.012 1.197 0 1.997.6 1.997 1zm-4 0c0 1.1045695-.8954305 2-2 2s-2-.8954305-2-2 .8954305-2 2-2 2 .8954305 2 2zm-7.319.723c-.413-.204-.681-.488-.681-.723 0-.4.8-1 2-1 .048 0 .091.01.138.012-.18151738.64276394-.18151738 1.32323606 0 1.966-.49897782.03104442-.9982257-.05633253-1.457-.255zm-1.681-5.723c1.44504605-.00478178 2.77784714.77833948 3.477 2.043-3.554-.308-5.54 2.485-3.889 4.527-.42399667.33420759-.82491101.69670097-1.2 1.085-1.72386377-.76644741-2.67784651-2.63318679-2.289096-4.4792694.38875052-1.8460826 2.01453564-3.16957107 3.901096-3.1757306zm1.385 7.749c.91143726.2946063 1.886967.3292364 2.817.1 1.5511857 1.5347936 4.0488143 1.5347936 5.6 0 .9316693.230482 1.9094667.1933943 2.821-.107 2.7997366 1.8753829 4.4498729 5.048983 4.377 8.418-.5407927-.1749767-1.1172301-.2093909-1.675-.1-.858-.735-5.145-2.06-7.231-3.68-.6516897-.4919955-1.5514544-.4891326-2.2.007-2.079 1.616-6.33 2.915-7.221 3.673-.55778171-.1092143-1.13417453-.0748028-1.675.1-.0705096-3.3689986 1.58385532-6.5408388 4.387-8.411zm-1.185 15.612c-.13699288-.4070083-.5185552-.6811053-.948-.681-.474 0-.592.32-1.25.32-1.23243576-.1564335-2.1179166-1.2632846-2-2.5-.11798842-1.2360307.76636954-2.3425847 1.998-2.5.664 0 .861.422 1.477.139.24393898-.1123769.43241976-.3181561.523-.571.87-.563 4.771-1.831 7-3.5 2.274 1.7 6.137 2.945 7 3.5.090814.2530301.279682.4588386.524.571.616.283.815-.139 1.477-.139 1.2324358.1564335 2.1179166 1.2632846 2 2.5.117881 1.237058-.7681616 2.3440578-2.001 2.5-.737 0-.95-.51-1.612-.252-.892.347-.476 1.316-2.445 4.921-1.213 2.21-2.876 3.331-4.943 3.331s-3.73-1.121-4.942-3.329c-.73889683-1.3821199-1.36041429-2.8238531-1.858-4.31zm3.8 8.978c1.9025346.8830194 4.0974654.8830194 6 0v3.215c-1.9387645-.6308657-4.0122575-.7245185-6-.271zm12 22.661c0 .5522847-.4477153 1-1 1h-15.34c-1.516-3.549-2.66-5.674-2.66-9.47-.00584205-4.0618411 2.57266833-7.6775375 6.4148554-8.9951816 3.842187-1.3176441 8.0969837-.0453702 10.5851446 3.1651816v.561c-1.4304367-1.0137352-3.1931295-1.4449335-4.93-1.206-3.6777739.4628139-6.35715199 3.7124592-6.11049263 7.4110234.24665933 3.6985641 3.33383133 6.5636349 7.04049263 6.5339766h6zm18-5c0 1.1045695-.8954305 2-2 2h-22c-2.3058941-.0019356-4.3114191-1.5805526-4.8549275-3.8214788s.5159721-4.5629216 2.5647655-5.6210318 4.5554941-.577888 6.068162 1.1625106c.064.073.151.13.222.2-.0332204 1.1980274.6516619 2.3002826 1.7404768 2.8011374 1.0888148.5008548 2.371446.3036559 3.2595232-.5011374 1.1305142 1.0400491 2.8694858 1.0400491 4 0 .8914444.8236324 2.1978916 1.0136177 3.287.478.2842583.2890608.7149129.377894 1.0903534.2249124s.6213659-.5175024.6226466-.9229124c0-.3.007-1.62.02-1.964.226-6.29 2.974-12.52 3.755-15.965.1177404-.519737-.1927791-1.040495-.706-1.184-.848-.238-1.438-.871-2.173-2.331-.6590631-1.1888993-1.8058441-2.0294335-3.138-2.3-.815-.22-.969-1.256-.478-1.256h4.72c.5522847 0 1-.4477153 1-1s-.4477153-1-1-1h-2c-.5522847 0-1-.4477153-1-1s.4477153-1 1-1h5c.5522847 0 1 .4477153 1 1z" fill="#000" transform="translate(-1)"/></g></svg>